<svg xmlns="http://www.w3.org/2000/svg" viewBox="0 0 600 320">
  <defs>
    <g id="cog">
      <path d="M 183 65 L 197 65 L 202 82 L 178 82 Z" fill="#1B4322" />
    </g>

    <mask id="tractorMask">
      <rect x="0" y="0" width="600" height="320" fill="white" />
      <circle cx="165" cy="225" r="27" fill="black" />
      <circle cx="245" cy="235" r="19" fill="black" />
      <rect x="170" y="162" width="18" height="22" rx="2" fill="black" />
    </mask>
  </defs>

  <path d="M 250 85 C 350 80, 450 110, 530 150 C 440 120, 350 115, 250 115 Z" fill="#F4C724" />
  <path d="M 250 130 C 360 130, 470 150, 560 195 C 460 155, 370 150, 250 155 Z" fill="#74B727" />
  <path d="M 250 180 C 370 180, 480 195, 590 240 C 470 210, 380 205, 250 210 Z" fill="#3D8629" />
  <path d="M 30 265 C 165 245, 350 245, 575 265 C 400 260, 200 270, 30 275 Z" fill="#1B4322" />

  <g id="gear">
    <circle cx="190" cy="190" r="90" fill="none" stroke="#1B4322" stroke-width="4"
            stroke-dasharray="283 1000" transform="rotate(135 190 190)" stroke-linecap="butt" />

    <circle cx="190" cy="190" r="104" fill="none" stroke="#1B4322" stroke-width="12"
            stroke-dasharray="327 1000" transform="rotate(135 190 190)" stroke-linecap="butt" />

    <use href="#cog" transform="rotate(-135 190 190)" />
    <use href="#cog" transform="rotate(-105 190 190)" />
    <use href="#cog" transform="rotate(-75 190 190)" />
    <use href="#cog" transform="rotate(-45 190 190)" />
    <use href="#cog" transform="rotate(-15 190 190)" />
    <use href="#cog" transform="rotate(15 190 190)" />
    <use href="#cog" transform="rotate(45 190 190)" />
  </g>

  <g id="tractor">
    <g mask="url(#tractorMask)" fill="#1B4322">
      <rect x="155" y="150" width="45" height="6" rx="2" />
      <rect x="165" y="156" width="30" height="84" />
      <path d="M 195 185 L 245 185 L 250 200 L 250 240 L 195 240 Z" />
      <rect x="230" y="140" width="6" height="45" />
      <rect x="228" y="140" width="10" height="4" rx="1" />
    </g>

    <path d="M 165 203 A 22 22 0 1 0 165 247 A 22 22 0 1 0 165 203 Z M 165 211 A 14 14 0 1 1 165 239 A 14 14 0 1 1 165 211 Z" fill="#1B4322" fill-rule="evenodd" />
    <circle cx="165" cy="225" r="6" fill="#1B4322" />

    <path d="M 245 220 A 15 15 0 1 0 245 250 A 15 15 0 1 0 245 220 Z M 245 226 A 9 9 0 1 1 245 244 A 9 9 0 1 1 245 226 Z" fill="#1B4322" fill-rule="evenodd" />
    <circle cx="245" cy="235" r="4" fill="#1B4322" />
  </g>
</svg>
